<svg width="20" height="14" viewBox="0 0 20 14" fill="none" xmlns="http://www.w3.org/2000/svg">
<path fill-rule="evenodd" clip-rule="evenodd" d="M9.86571 13.7637C7.73169 13.7637 5.59767 13.1709 3.93787 11.8668C2.15952 10.6812 0.855383 9.02144 0.144043 7.12453C0.855383 5.22763 2.15952 3.56783 3.93787 2.38227C5.59767 1.07814 7.73169 0.485352 9.86571 0.485352C11.9997 0.485352 14.1337 1.07814 15.7935 2.38227C17.5719 3.56783 18.876 5.22763 19.5874 7.12453C18.876 9.02144 17.5719 10.6812 15.7935 11.8668C14.1337 13.1709 11.9997 13.7637 9.86571 13.7637ZM9.86571 2.61939C7.37602 2.61939 5.47909 4.63484 5.47909 7.12453C5.47909 9.61422 7.37602 11.6297 9.86571 11.6297C12.3554 11.6297 14.2523 9.61422 14.2523 7.12453C14.2523 4.63484 12.3554 2.61939 9.86571 2.61939ZM9.86571 9.7328C8.44303 9.7328 7.25745 8.54721 7.25745 7.12453C7.25745 5.70185 8.44303 4.39774 9.86571 4.39774C11.2884 4.39774 12.5925 5.70185 12.5925 7.12453C12.5925 8.54721 11.2884 9.7328 9.86571 9.7328Z" fill="#C8C8C8"/>
</svg>
